<?xml version="1.0" standalone="no"?><!DOCTYPE svg PUBLIC "-//W3C//DTD SVG 1.1//EN" "http://www.w3.org/Graphics/SVG/1.1/DTD/svg11.dtd"><svg t="1692350438669" class="icon" viewBox="0 0 1024 1024" version="1.1" xmlns="http://www.w3.org/2000/svg" p-id="5785" width="20" height="20" xmlns:xlink="http://www.w3.org/1999/xlink"><path d="M885.0432 127.9488H138.9568C110.336 127.9488 87.04 151.2448 87.04 179.9168V883.0464c0 28.6208 23.296 51.9168 51.9168 51.9168h746.0352c28.6208 0 51.9168-23.296 51.9168-51.9168V179.9168c0.0512-28.672-23.2448-51.968-51.8656-51.968z m10.4448 755.0464c0 5.7856-4.7104 10.496-10.496 10.496H138.9568c-5.7856 0-10.496-4.7104-10.496-10.496V340.4288h766.976v542.5664zM128.512 298.9568V179.9168c0-5.7856 4.7104-10.496 10.496-10.496h746.0352c5.7856 0 10.496 4.7104 10.496 10.496V299.008H128.512z" fill="#2c2c2c" p-id="5786"></path><path d="M322.56 91.8016c-11.264 0-20.48 9.216-20.48 20.48v97.28c0 11.264 9.216 20.48 20.48 20.48s20.48-9.216 20.48-20.48v-97.28c0-11.264-9.216-20.48-20.48-20.48zM701.44 91.8016c-11.264 0-20.48 9.216-20.48 20.48v97.28c0 11.264 9.216 20.48 20.48 20.48s20.48-9.216 20.48-20.48v-97.28c0-11.264-9.216-20.48-20.48-20.48z" fill="#2c2c2c" p-id="5787"></path><path d="M682.0352 427.52c14.7456-2.2016 27.9552 9.216 27.9552 24.064v297.8816c0 6.5024-1.1776 12.9536-3.4816 19.3536-2.3552 6.3488-5.5808 12.1344-9.7792 17.2544s-9.1136 9.216-14.6944 12.3392c-5.5808 3.1232-11.4688 4.6592-17.7152 4.6592h-41.1648c-8.448 0-15.872-5.5808-18.176-13.7216-3.4304-12.032 5.632-24.0128 18.176-24.0128h20.224c6.3488 0 11.8784-2.304 16.64-6.8608 5.0176-4.8128 7.5776-11.6224 7.5776-18.5344V470.8864c0-4.6592-3.7376-8.3968-8.3968-8.3968H408.9856c-4.096 0-7.3728 3.328-7.3728 7.3728v151.5008c0 15.2064-1.3312 31.2832-3.9424 48.2304-2.6624 16.9472-6.3488 33.792-11.1616 50.5344-4.8128 16.7936-10.6496 33.0752-17.4592 48.9472-4.1984 9.7792-8.704 18.944-13.5168 27.4944a16.6912 16.6912 0 0 1-23.7568 5.8368l-5.4784-3.584a16.32256 16.32256 0 0 1-5.1712-21.8112l0.1536-0.256c5.12-8.8576 10.8032-20.8896 16.9984-36.096 5.5808-13.9776 11.008-31.2832 16.2816-51.968 5.2736-20.6336 7.936-43.1104 7.936-67.328V443.9552c0-9.0624 7.3216-16.384 16.384-16.384h303.1552v-0.0512zM442.368 574.7712H517.12v-36.352H455.168c-9.2672 0-16.7936-7.5264-16.7936-16.7936 0-9.2672 7.5264-16.7936 16.7936-16.7936H517.12v-22.528c0-4.5056 3.6352-8.192 8.192-8.192h25.1392c4.5056 0 8.192 3.6352 8.192 8.192v22.5792h41.472l15.9232-1.6896a17.664 17.664 0 0 1 1.8432 35.2256H558.592v36.352h56.3712l15.3088-1.8432a17.54112 17.54112 0 0 1 19.6096 17.408c0 9.6768-7.8336 17.5104-17.5104 17.5104H442.368c-9.1136 0-16.5376-7.424-16.5376-16.5376s7.3728-16.5376 16.5376-16.5376z m183.7568 148.1728c0 8.0896-3.0208 14.8992-9.0624 20.48-6.0416 5.5808-13.2608 8.3968-21.6576 8.3968H469.76a21.6064 21.6064 0 0 1-21.6064-21.6064v-76.4928c0-8.8576 7.168-16.0256 16.0256-16.0256h140.032c11.52-1.7408 21.9136 7.2192 21.9136 18.8928v66.3552z m-47.5136-0.9216c3.4304 0 6.1952-1.024 8.3968-3.0208 2.1504-1.9968 3.2768-4.4032 3.2768-7.2192v-36.2496c0-4.9152-3.9936-8.96-8.96-8.96H492.032c-4.9152 0-8.96 3.9936-8.96 8.96v36.9152c0 5.2736 4.3008 9.5744 9.5744 9.5744h85.9648z" fill="#2c2c2c" p-id="5788"></path></svg>