<?xml version="1.0" standalone="no"?><!DOCTYPE svg PUBLIC "-//W3C//DTD SVG 1.1//EN" "http://www.w3.org/Graphics/SVG/1.1/DTD/svg11.dtd"><svg t="1690721161877" class="icon" viewBox="0 0 1024 1024" version="1.1" xmlns="http://www.w3.org/2000/svg" p-id="10338" xmlns:xlink="http://www.w3.org/1999/xlink" width="20" height="20"><path d="M733.866667 155.306667c-126.293333 0-191.146667 34.133333-221.866667 58.026666-32.426667-25.6-95.573333-58.026667-225.28-58.026666C58.026667 155.306667 34.133333 264.533333 34.133333 237.226667v590.506666c0 22.186667 18.773333 40.96 40.96 40.96 0 0 97.28-20.48 203.093334-20.48 107.52 0 223.573333 20.48 223.573333 20.48 3.413333 0 6.826667 0 10.24-1.706666 3.413333 0 6.826667 1.706667 10.24 1.706666 0 0 97.28-20.48 203.093333-20.48 107.52 0 223.573333 20.48 223.573334 20.48 22.186667 0 40.96-18.773333 40.96-40.96V237.226667c0 27.306667-23.893333-81.92-256-81.92zM452.266667 624.64c0 11.946667-13.653333 20.48-30.72 20.48H151.893333c-17.066667 0-30.72-8.533333-30.72-20.48v-20.48c0-11.946667 13.653333-20.48 30.72-20.48h269.653334c17.066667 0 30.72 8.533333 30.72 20.48v20.48z m0-184.32c0 11.946667-13.653333 20.48-30.72 20.48H151.893333c-17.066667 0-30.72-8.533333-30.72-20.48v-20.48c0-11.946667 13.653333-20.48 30.72-20.48h269.653334c17.066667 0 30.72 8.533333 30.72 20.48v20.48z m482.986666 346.453333c0 22.186667-18.773333 20.48-40.96 20.48 0 0-83.626667-20.48-162.133333-20.48-73.386667 0-141.653333 20.48-141.653333 20.48-22.186667 0-40.96 1.706667-40.96-20.48V278.186667s32.426667-42.666667 121.173333-56.32v320.853333l81.92-61.44 81.92 61.44V226.986667c78.506667 17.066667 102.4 51.2 102.4 51.2v508.586666z" fill="#333333" p-id="10339"></path></svg>