<?xml version="1.0" standalone="no"?><!DOCTYPE svg PUBLIC "-//W3C//DTD SVG 1.1//EN" "http://www.w3.org/Graphics/SVG/1.1/DTD/svg11.dtd"><svg t="1692350467240" class="icon" viewBox="0 0 1024 1024" version="1.1" xmlns="http://www.w3.org/2000/svg" p-id="3374" width="20" height="20" xmlns:xlink="http://www.w3.org/1999/xlink"><path d="M885.248 128H138.752C110.08 128 87.04 151.04 87.04 179.712v703.488c0 28.672 23.04 51.712 51.712 51.712h745.984c28.672 0 51.712-23.552 51.712-51.712V179.712c0.512-28.672-23.04-51.712-51.2-51.712z m10.24 755.2c0 5.632-4.608 10.752-10.752 10.752H138.752c-5.632 0-10.24-4.608-10.24-10.752v-542.72h766.976v542.72zM128.512 299.008V179.712c0-5.632 4.608-10.24 10.24-10.24h745.984c5.632 0 10.752 4.608 10.752 10.24v119.296H128.512z" fill="#2c2c2c" p-id="3375"></path><path d="M322.56 91.648c-11.264 0-20.48 9.216-20.48 20.48v97.28c0 11.264 9.216 20.48 20.48 20.48s20.48-9.216 20.48-20.48v-97.28c0-11.264-9.216-20.48-20.48-20.48zM701.44 91.648c-11.264 0-20.48 9.216-20.48 20.48v97.28c0 11.264 9.216 20.48 20.48 20.48s20.48-9.216 20.48-20.48v-97.28c0-11.264-9.216-20.48-20.48-20.48z" fill="#2c2c2c" p-id="3376"></path><path d="M624.128 440.832c15.36-2.048 29.184 9.728 29.184 25.088v266.24c0 5.632-1.024 10.752-3.072 15.36-2.048 5.12-5.12 9.216-8.704 12.8s-8.192 6.144-13.312 8.192c-5.12 2.048-10.24 3.072-16.384 3.072H401.408c-17.408 0-31.232-13.824-31.232-31.232v-276.48c0-12.288 10.24-22.528 22.528-22.528h231.424v-0.512z m-196.096 140.8h168.448c8.192 0 15.36-6.656 15.36-15.36V493.568c0-8.192-6.656-15.36-15.36-15.36H428.032c-8.192 0-15.36 6.656-15.36 15.36v72.704c0.512 8.192 7.168 15.36 15.36 15.36z m167.424 151.04c4.096 0 8.192-1.536 11.264-4.608 3.072-3.072 4.608-6.656 4.608-10.752v-78.848c0-9.216-7.168-16.384-16.384-16.384H429.568c-9.216 0-16.384 7.168-16.384 16.384v77.824c0 9.216 7.168 16.384 16.384 16.384h165.888z" fill="#2c2c2c" p-id="3377"></path></svg>