<?xml version="1.0" standalone="no"?><!DOCTYPE svg PUBLIC "-//W3C//DTD SVG 1.1//EN" "http://www.w3.org/Graphics/SVG/1.1/DTD/svg11.dtd"><svg t="1690721395447" class="icon" viewBox="0 0 1024 1024" version="1.1" xmlns="http://www.w3.org/2000/svg" p-id="14628" xmlns:xlink="http://www.w3.org/1999/xlink" width="20" height="20"><path d="M818.218667 910.336H205.781333a42.666667 42.666667 0 0 1-42.666666-42.666667V156.373333a42.666667 42.666667 0 0 1 42.666666-42.666666h612.437334a42.666667 42.666667 0 0 1 42.666666 42.666666v711.296a42.666667 42.666667 0 0 1-42.666666 42.666667z m-149.333334-65.493333a21.333333 21.333333 0 0 0-21.333333 21.333333 21.333333 21.333333 0 0 0 21.333333 21.333333h42.666667a21.333333 21.333333 0 0 0 21.333333-21.333333 21.333333 21.333333 0 0 0-21.333333-21.333333z m-21.333333-59.733334a21.333333 21.333333 0 0 0-21.333333 21.333334 21.333333 21.333333 0 0 0 21.333333 21.333333h85.333333a21.333333 21.333333 0 0 0 21.333334-21.333333 21.333333 21.333333 0 0 0-21.333334-21.333334z m42.026667-273.066666a134.528 134.528 0 0 0-127.317334 137.557333 160.042667 160.042667 0 0 0 57.301334 114.389333 19.328 19.328 0 0 0 11.477333 4.266667h118.442667a13.696 13.696 0 0 0 11.477333-5.461333 159.786667 159.786667 0 0 0 57.301333-114.346667A132.736 132.736 0 0 0 689.578667 512z m-417.322667 5.589333a36.736 36.736 0 0 0-36.693333 36.693333 36.736 36.736 0 0 0 36.693333 36.650667h128a36.736 36.736 0 0 0 36.650667-36.650667 36.736 36.736 0 0 0-36.650667-36.693333z m0-164.736a36.736 36.736 0 0 0-36.693333 36.693333 36.736 36.736 0 0 0 36.693333 36.650667h266.453333a36.736 36.736 0 0 0 36.650667-36.650667 36.736 36.736 0 0 0-36.650667-36.693333z m0-161.536a36.736 36.736 0 0 0-36.693333 36.693333 36.736 36.736 0 0 0 36.693333 36.650667h379.050667a36.736 36.736 0 0 0 36.650666-36.650667 36.736 36.736 0 0 0-36.650666-36.693333z" fill="#2c2c2c" p-id="14629"></path></svg>